# xmcd
#
# Track frame offsets:
#  150
#  15283
#  26154
#  43757
#  57735
#  72985
#  87419
#  109948
#  123602
#  140644
#  157463
#  169059
#  183058
#  201212
#  216232
#  231071
#  253852
#  272619
#  287331
#  303812
#
# Disc length: 4182 seconds
#
# Revision: 0
# Processed by: cddbd v1.5.2PL0 Copyright (c) Steve Scherf et al.
# Submitted via: AltoMP3_Maker 3.0
#
DISCID=2c105414
DTITLE=Anthologies - Country Rock - Truckers, Kickers, Cowboy Angels, Vol. 4, disc 2
DYEAR=1900
DGENRE=
TTITLE0=Delaney, Bonnie and Friends - Never Ending Song of Love
TTITLE1=Little Feat - Willin'
TTITLE2=Ry Cooder - Taxes on the Farmer Feeds Us All
TTITLE3=Lonnie Mack - Asphalt Outlaw Hero
TTITLE4=Kris Kristofferson - Good Christian Soldier
TTITLE5=John Prine - Paradise
TTITLE6=Gene Clark - For a Spanish Guitar
TTITLE7=New Riders of the Purple Sage - Glendale Train
TTITLE8=Michael Nesmith - Tumbling Tumbleweeds
TTITLE9=Flying Burrito Bros - Hand to Mouth
TTITLE10=Rick Nelson - This Train
TTITLE11=Twin Engine - My Life Gets Better Every Day
TTITLE12=Alex Harvey - Delta Dawn
TTITLE13=Mordicai Jones - All Because of a Woman
TTITLE14=Doug Kershaw - Who Needs That Kind of Friend
TTITLE15=Poco - Bad Weather
TTITLE16=Mickey Newbury - The Future's Not What It Used to Be
TTITLE17=Link Wray - Fire and Brimstone
TTITLE18=Sir Douglas Quintet - Wasted Days 7 Wasted Nights
TTITLE19=Commander Cody and LPA - Lost in the Ozone
EXTD=
EXTT0=
EXTT1=
EXTT2=
EXTT3=
EXTT4=
EXTT5=
EXTT6=
EXTT7=
EXTT8=
EXTT9=
EXTT10=
EXTT11=
EXTT12=
EXTT13=
EXTT14=
EXTT15=
EXTT16=
EXTT17=
EXTT18=
EXTT19=
PLAYORDER=
